<svg id="Layer_1" data-name="Layer 1" xmlns="http://www.w3.org/2000/svg" viewBox="0 0 16 16"><defs><style>.cls-1{fill:#5f6468;}</style></defs><path class="cls-1" d="M.4,6,.3,6a.26.26,0,0,0-.3.25v1a.27.27,0,0,0,.2.25A13.76,13.76,0,0,0,2,7.7a5.48,5.48,0,0,1-.13-1.15,5,5,0,0,1,4.3-5v2A3.09,3.09,0,0,0,4,7.64,3,3,0,0,0,5.93,9.49,3.1,3.1,0,1,0,7.68,3.55v-2a5,5,0,0,1,2.93,1.53,9.89,9.89,0,0,0,3.21-1.22A5.06,5.06,0,0,1,11.6,4.66a10,10,0,0,0,2.9-.79h0A10.25,10.25,0,0,1,12,6.48c0,.22,0,.44,0,.66a14.92,14.92,0,0,1-2.76,8.47.25.25,0,0,0,.2.39h1.23a.27.27,0,0,0,.22-.11A16.36,16.36,0,0,0,13.5,7.21a12.25,12.25,0,0,0,2.23-2.48,1.53,1.53,0,0,0,.06-1.63,1.66,1.66,0,0,0-.61-.57s0-.09.05-.14a1.54,1.54,0,0,0-.49-1.7A1.48,1.48,0,0,0,13.06.58a8.56,8.56,0,0,1-2,.87A6.55,6.55,0,0,0,.4,6Zm8.13.55A1.6,1.6,0,1,1,6.93,5,1.6,1.6,0,0,1,8.53,6.55Z"/></svg>